<?xml version="1.0" encoding="iso-8859-1"?>
<!-- Generator: Adobe Illustrator 23.0.0, SVG Export Plug-In . SVG Version: 6.00 Build 0)  -->
<svg version="1.1" id="Capa_1" xmlns="http://www.w3.org/2000/svg" xmlns:xlink="http://www.w3.org/1999/xlink" x="0px" y="0px"
	 viewBox="0 0 595.276 841.89" style="enable-background:new 0 0 595.276 841.89;" xml:space="preserve">
<g>
	<g>
		<path style="fill:#FFFFFF;" d="M390.913,516.03l0.256,3.415h-0.256c-0.258-0.851-0.591-1.492-1-1.923
			c-0.589-0.623-1.346-0.934-2.27-0.934c-1.261,0-2.219,0.545-2.876,1.636c-0.55,0.92-0.825,2.016-0.825,3.288
			c0,1.032,0.182,1.974,0.547,2.825c0.365,0.851,0.843,1.475,1.434,1.871c0.591,0.396,1.198,0.594,1.821,0.594
			c0.365,0,0.718-0.05,1.058-0.152c0.341-0.101,0.669-0.25,0.985-0.447v-3.128c0-0.543-0.038-0.898-0.113-1.065
			c-0.076-0.168-0.192-0.295-0.35-0.383c-0.158-0.088-0.437-0.132-0.836-0.132v-0.303h3.832v0.303h-0.183
			c-0.379,0-0.64,0.138-0.781,0.415c-0.098,0.197-0.146,0.585-0.146,1.165v3.311c-0.56,0.33-1.112,0.572-1.657,0.726
			c-0.545,0.154-1.151,0.231-1.818,0.231c-1.913,0-3.365-0.67-4.358-2.011c-0.745-1.005-1.117-2.165-1.117-3.479
			c0-0.952,0.209-1.864,0.628-2.737c0.496-1.037,1.178-1.836,2.044-2.394c0.725-0.463,1.582-0.694,2.57-0.694
			c0.36,0,0.687,0.032,0.982,0.096c0.294,0.064,0.711,0.205,1.252,0.423c0.272,0.112,0.455,0.168,0.547,0.168
			c0.092,0,0.172-0.046,0.237-0.14c0.066-0.093,0.106-0.275,0.12-0.546L390.913,516.03L390.913,516.03z"/>
		<path style="fill:#FFFFFF;" d="M395.002,519.573v1.644c0.56-1.096,1.134-1.644,1.723-1.644c0.268,0,0.489,0.089,0.664,0.267
			c0.175,0.178,0.263,0.384,0.263,0.619c0,0.207-0.064,0.383-0.19,0.527s-0.278,0.216-0.453,0.216c-0.17,0-0.361-0.092-0.573-0.275
			c-0.212-0.183-0.369-0.275-0.471-0.275c-0.088,0-0.183,0.053-0.285,0.16c-0.219,0.218-0.445,0.577-0.679,1.077v3.503
			c0,0.405,0.046,0.71,0.139,0.917c0.063,0.144,0.175,0.263,0.336,0.359c0.16,0.096,0.392,0.143,0.694,0.143v0.287h-3.424v-0.287
			c0.341,0,0.594-0.058,0.759-0.176c0.121-0.085,0.207-0.221,0.256-0.407c0.024-0.09,0.037-0.348,0.037-0.774v-2.833
			c0-0.851-0.016-1.358-0.047-1.52c-0.032-0.162-0.09-0.281-0.175-0.355c-0.085-0.074-0.191-0.111-0.318-0.111
			c-0.151,0-0.321,0.04-0.511,0.12l-0.073-0.287l2.022-0.894H395.002L395.002,519.573z"/>
		<path style="fill:#FFFFFF;" d="M403.931,519.789v4.429c0,0.846,0.018,1.363,0.055,1.552c0.037,0.189,0.095,0.32,0.175,0.395
			c0.08,0.075,0.174,0.112,0.281,0.112c0.151,0,0.321-0.045,0.511-0.136l0.102,0.279l-2,0.902h-0.328v-1.548
			c-0.574,0.681-1.012,1.109-1.314,1.285c-0.302,0.176-0.621,0.263-0.956,0.263c-0.375,0-0.7-0.118-0.974-0.355
			c-0.275-0.237-0.466-0.541-0.573-0.914c-0.107-0.372-0.16-0.899-0.16-1.58v-3.263c0-0.346-0.034-0.585-0.102-0.718
			c-0.068-0.133-0.169-0.235-0.303-0.307c-0.134-0.072-0.376-0.105-0.726-0.1v-0.295h2.343v4.892c0,0.681,0.108,1.128,0.325,1.341
			c0.216,0.213,0.478,0.319,0.785,0.319c0.209,0,0.446-0.072,0.712-0.216c0.265-0.144,0.58-0.418,0.945-0.822v-4.142
			c0-0.415-0.069-0.695-0.208-0.842c-0.139-0.146-0.427-0.225-0.865-0.235v-0.295L403.931,519.789L403.931,519.789L403.931,519.789z
			"/>
		<path style="fill:#FFFFFF;" d="M405.108,520.515l2.059-0.91h0.277v1.708c0.346-0.644,0.692-1.095,1.04-1.353
			c0.348-0.258,0.714-0.387,1.099-0.387c0.672,0,1.231,0.287,1.679,0.862c0.55,0.702,0.825,1.617,0.825,2.745
			c0,1.261-0.331,2.304-0.993,3.128c-0.545,0.676-1.231,1.013-2.059,1.013c-0.36,0-0.672-0.056-0.934-0.168
			c-0.195-0.08-0.414-0.239-0.657-0.479v2.226c0,0.5,0.028,0.818,0.084,0.954c0.056,0.136,0.153,0.243,0.292,0.323
			c0.138,0.08,0.391,0.12,0.755,0.12v0.295h-3.504v-0.295h0.183c0.268,0.005,0.497-0.051,0.686-0.168
			c0.093-0.059,0.164-0.153,0.215-0.283c0.051-0.13,0.077-0.461,0.077-0.993v-6.91c0-0.473-0.02-0.774-0.059-0.902
			c-0.039-0.128-0.101-0.223-0.186-0.287c-0.085-0.064-0.201-0.096-0.347-0.096c-0.117,0-0.265,0.037-0.445,0.112L405.108,520.515z
			 M407.444,521.784v2.729c0,0.59,0.022,0.979,0.066,1.165c0.068,0.309,0.235,0.58,0.5,0.814c0.265,0.234,0.6,0.351,1.004,0.351
			c0.487,0,0.881-0.208,1.183-0.623c0.394-0.543,0.591-1.306,0.591-2.29c0-1.117-0.224-1.976-0.672-2.577
			c-0.312-0.415-0.681-0.623-1.109-0.623c-0.234,0-0.465,0.064-0.694,0.191C408.137,521.018,407.848,521.305,407.444,521.784z"/>
		<path style="fill:#FFFFFF;" d="M416.38,519.573c1.012,0,1.825,0.42,2.438,1.261c0.521,0.718,0.781,1.543,0.781,2.474
			c0,0.654-0.143,1.317-0.431,1.987s-0.683,1.176-1.186,1.516c-0.504,0.34-1.065,0.511-1.683,0.511
			c-1.008,0-1.808-0.439-2.402-1.317c-0.501-0.739-0.752-1.569-0.752-2.489c0-0.67,0.152-1.337,0.456-1.999
			c0.304-0.662,0.705-1.152,1.201-1.469C415.299,519.732,415.825,519.573,416.38,519.573z M416.154,520.092
			c-0.258,0-0.517,0.084-0.777,0.251c-0.26,0.168-0.471,0.461-0.631,0.882c-0.161,0.42-0.241,0.961-0.241,1.62
			c0,1.064,0.194,1.982,0.58,2.753c0.387,0.772,0.897,1.157,1.53,1.157c0.472,0,0.861-0.213,1.168-0.638
			c0.307-0.426,0.46-1.157,0.46-2.194c0-1.298-0.256-2.319-0.766-3.064C417.129,520.347,416.689,520.092,416.154,520.092z"/>
	</g>
	<path style="fill:none;stroke:#FFFFFF;stroke-width:2;stroke-miterlimit:10;" d="M416.373,560.31
		c63.253-1.611,111.424-8.047,119.117-27.431"/>
	<path style="fill:#FFFFFF;" d="M421.306,544.141c0,0-0.558-1.115,0.558-2.676c1.115-1.561,10.482-13.269,10.482-13.269l5.798-6.914
		c0,0,2.342-2.899,2.676-3.011c0.335-0.112,1.673,0,1.673,0s0.111-1.004,1.004-1.004c0.892,0,1.896-0.558,2.007,0
		c0.112,0.557-0.558,2.824-0.558,2.824s-1.561,8.996-1.673,10.501s-0.446,8.753-0.446,9.645c0,0.892-0.446,1.784-1.227,2.453
		c-0.781,0.669-3.234,1.45-3.234,1.45s-1.115-0.669-1.115-1.896c0-1.227-0.223-6.467-0.223-6.467s-1.338-0.223-2.342,0.112
		s-2.788,0.781-4.014,1.45s-2.007,1.896-2.565,3.011c-0.558,1.115-1.673,1.896-2.453,2.453s-2.453,0.781-3.011,1.338
		C422.087,544.699,421.306,544.141,421.306,544.141z M435.133,531.541l2.23-0.836l0.558-0.613v-2.77L435.133,531.541z"/>
	<path style="fill:#FFFFFF;" d="M456.766,519.721c0.818-1.412,2.305-1.784,3.866-1.933c1.561-0.149,6.096-0.446,7.508-0.297
		c1.412,0.149,4.386,3.048,4.609,4.163c0.223,1.115-0.52,3.643-0.669,4.089c-0.149,0.446-1.189,3.122-1.933,4.386
		s-4.609,5.278-6.244,6.393c-1.635,1.115-8.475,5.427-9.887,6.021c-1.412,0.595-4.089,1.561-5.278,1.338
		c-1.189-0.223-2.007,0-2.528-0.446c-0.52-0.446-0.892-1.858-0.694-2.305s1.066-1.635,1.066-1.635s8.549-14.199,9.218-14.942
		s0.52-1.338,0.52-1.635s-1.041-0.372-1.041-0.372S455.948,521.134,456.766,519.721z M461.226,525.743
		c-0.966,1.635-6.393,11.076-6.913,12.043c-0.52,0.966,0.372,1.264,1.041,0.892c0.669-0.372,3.345-2.007,5.055-3.197
		c1.71-1.189,4.609-5.204,5.278-6.393c0.669-1.189,0.966-4.089,0.966-4.609s-1.264-1.71-2.23-2.007s-1.71,0-1.71,0
		S462.192,524.107,461.226,525.743z"/>
	<path style="fill:#FFFFFF;" d="M479.141,521.208c0,0,2.602-2.751,3.568-3.197c0.966-0.446,3.568-1.189,5.129-1.115
		c1.561,0.074,4.832,0.892,6.021,1.561s2.379,2.709,2.379,3.882c0,1.173-0.892,3.849-2.081,4.89
		c-1.189,1.041-3.271,2.55-4.609,3.357c-1.338,0.807-2.825,1.55-3.717,1.624c-0.892,0.074-1.487,0.446-1.041,0.966
		c0.446,0.52,1.933,3.141,2.899,5.027c0.966,1.886,1.264,2.778,0.669,3.373c-0.595,0.595-1.561,1.85-2.156,2.337
		c-0.595,0.488-2.676,0.711-2.825,0.339s-0.52-2.081-0.966-3.271c-0.446-1.189-2.751-6.319-3.271-6.096
		c-0.52,0.223-0.743,2.1-1.338,3.318c-0.595,1.217-1.338,3.298-2.527,4.19c-1.189,0.892-2.676,2.007-3.717,2.044
		c-1.041,0.037-2.899-0.409-1.858-2.713c1.041-2.305,5.055-10.036,6.765-12.638c1.71-2.602,4.386-5.873,3.866-6.244
		c-0.52-0.372-1.189-0.339-1.412-0.504S479.141,521.208,479.141,521.208z M486.873,521.654l-4.056,6.319l-1.445,2.613
		c0,0,0.511,0.576,1.445,0.096c0.934-0.479,4.13-1.817,5.469-2.933c1.338-1.115,3.42-3.717,2.156-4.832
		C489.177,521.803,487.307,520.978,486.873,521.654z"/>
	<path style="fill:#FFFFFF;" d="M516.757,519.796c0.892,1.189,0.743,5.352-0.818,8.698c-1.561,3.345-8.623,11.522-11.82,13.753
		c-3.197,2.23-5.575,2.751-7.062,2.195s-2.676-3.087-2.974-5.317c-0.297-2.23-0.149-4.683,0.595-6.244
		c0.743-1.561,3.568-6.319,6.765-9.664c3.197-3.345,9.069-6.324,9.069-6.324C512.742,516.589,515.865,518.606,516.757,519.796z
		 M508.505,520.836c0,0-2.453,1.412-4.312,4.46c-1.858,3.048-3.345,6.467-3.345,8.995c0,2.527-0.223,4.758,0.669,5.204
		s3.42-0.669,5.65-4.535s4.312-7.806,3.568-10.705C509.992,521.357,509.371,520.235,508.505,520.836z"/>
</g>
</svg>
